<?xml version="1.0" encoding="UTF-8"?>
<svg version="1.1" xmlns="http://www.w3.org/2000/svg" width="500" height="500">
<path d="M0 0 C165 0 330 0 500 0 C500 165 500 330 500 500 C335 500 170 500 0 500 C0 335 0 170 0 0 Z " fill="#FEFEFE" transform="translate(0,0)"/>
<path d="M0 0 C13.39865091 9.6839558 24.78984346 21.02128634 35 34 C35.75667969 34.928125 36.51335937 35.85625 37.29296875 36.8125 C53.82510586 57.52486754 66.51532004 81.24527882 78.0390625 105.02490234 C79.0243808 107.05011195 80.02766009 109.06582292 81.03125 111.08203125 C92.89915474 135.22106615 102.26049093 160.5906866 111 186 C111.30905273 186.87027832 111.61810547 187.74055664 111.93652344 188.63720703 C112.3507959 189.82419189 112.3507959 189.82419189 112.7734375 191.03515625 C113.13187744 192.04848022 113.13187744 192.04848022 113.49755859 193.08227539 C114 195 114 195 114 199 C111.73050898 199.67155349 109.4596039 200.3373963 107.1875 201 C105.92292969 201.37125 104.65835937 201.7425 103.35546875 202.125 C100 203 100 203 97 203 C96.51140503 201.61554688 96.51140503 201.61554688 96.01293945 200.203125 C75.00339173 140.80305213 51.55514047 75.30301932 6 30 C5.10925781 29.10925781 4.21851563 28.21851563 3.30078125 27.30078125 C-14.32035042 10.50282653 -40.32673872 -2.84676113 -65.05078125 -2.30859375 C-73.55026637 -1.41924365 -81.10280394 2.90549998 -87 9 C-98.65608768 25.12502248 -100.84661559 43.61954032 -103 63 C-82.21 63 -61.42 63 -40 63 C-37.669375 67.228125 -35.33875 71.45625 -32.9375 75.8125 C-25.60731886 89.10296697 -18.24546995 102.37554363 -10.86767578 115.63964844 C-8.97067513 119.05276177 -7.0767217 122.46754978 -5.18359375 125.8828125 C-4.54558838 127.03313965 -3.90758301 128.1834668 -3.25024414 129.36865234 C-2.07034254 131.49619265 -0.89105422 133.62407331 0.28735352 135.75244141 C0.84479248 136.75710449 1.40223145 137.76176758 1.9765625 138.796875 C2.5379231 139.8386814 3.0992837 140.8804878 3.67765522 141.9538641 C5.36449486 144.99299726 7.23178276 147.85182748 9.18477917 150.72634983 C19.45520053 166.40465924 20.81891585 179.2586815 20.47583008 197.68139648 C20.46485913 200.48282862 20.4736702 203.284122 20.48158264 206.08555603 C20.48833303 212.06696284 20.44825992 218.04649753 20.37449074 224.0274334 C20.26791355 232.67404726 20.23488965 241.31977481 20.21864685 249.96697415 C20.19033701 264.00282598 20.10421659 278.03768429 19.98071289 292.07299805 C19.86101219 305.69046204 19.769327 319.30765283 19.71411133 332.92553711 C19.71062736 333.77634403 19.7071434 334.62715095 19.70355386 335.50373989 C19.67651441 342.15962084 19.65107683 348.81550766 19.62614453 355.4713968 C19.50395519 387.98184367 19.24231979 420.48979754 19 453 C-66.14 453 -151.28 453 -239 453 C-239.40331349 382.74727119 -239.40331349 382.74727119 -239.48828125 353.33007812 C-239.50785739 346.59773516 -239.52806148 339.86539453 -239.54931641 333.13305664 C-239.55327264 331.86752558 -239.55327264 331.86752558 -239.55730879 330.57642823 C-239.60069888 316.98904991 -239.67947889 303.40209855 -239.77152796 289.81497266 C-239.86533259 275.85134433 -239.92064847 261.88793816 -239.94088495 247.92400771 C-239.95454704 239.32028002 -239.99755441 230.71775897 -240.07916467 222.11440311 C-240.13238347 216.19962909 -240.14792134 210.28547081 -240.13501377 204.37047525 C-240.12866173 200.96640992 -240.14339353 197.56611195 -240.19205475 194.16214561 C-240.40940937 178.16234088 -239.1459482 166.33744579 -230.18813586 152.81078398 C-228.53744651 150.2950432 -227.10818195 147.66972401 -225.671875 145.02734375 C-224.70016115 143.32944267 -223.72621149 141.63281915 -222.75 139.9375 C-218.04293139 131.68886901 -213.47801548 123.37507571 -209 115 C-203.54893325 104.81190399 -197.94919362 94.71973303 -192.23046875 84.6796875 C-188.12833105 77.46746475 -184.06780037 70.2316451 -180 63 C-160.86 63 -141.72 63 -122 63 C-122 60.36 -122 57.72 -122 55 C-119.606606 30.94144881 -112.56893346 4.72078425 -93.30078125 -11.3671875 C-64.69133852 -31.67066298 -26.41083151 -17.70718795 0 0 Z " fill="#FDFDFE" transform="translate(312,34)"/>
<path d="M0 0 C13.39865091 9.6839558 24.78984346 21.02128634 35 34 C35.75667969 34.928125 36.51335937 35.85625 37.29296875 36.8125 C53.82510586 57.52486754 66.51532004 81.24527882 78.0390625 105.02490234 C79.0243808 107.05011195 80.02766009 109.06582292 81.03125 111.08203125 C92.89915474 135.22106615 102.26049093 160.5906866 111 186 C111.30905273 186.87027832 111.61810547 187.74055664 111.93652344 188.63720703 C112.3507959 189.82419189 112.3507959 189.82419189 112.7734375 191.03515625 C113.13187744 192.04848022 113.13187744 192.04848022 113.49755859 193.08227539 C114 195 114 195 114 199 C111.73050898 199.67155349 109.4596039 200.3373963 107.1875 201 C105.92292969 201.37125 104.65835937 201.7425 103.35546875 202.125 C100 203 100 203 97 203 C96.51140503 201.61554688 96.51140503 201.61554688 96.01293945 200.203125 C75.00339173 140.80305213 51.55514047 75.30301932 6 30 C5.10925781 29.10925781 4.21851563 28.21851563 3.30078125 27.30078125 C-14.32035042 10.50282653 -40.32673872 -2.84676113 -65.05078125 -2.30859375 C-73.55026637 -1.41924365 -81.10280394 2.90549998 -87 9 C-98.65608768 25.12502248 -100.84661559 43.61954032 -103 63 C-82.21 63 -61.42 63 -40 63 C-37.669375 67.228125 -35.33875 71.45625 -32.9375 75.8125 C-25.60731886 89.10296697 -18.24546995 102.37554363 -10.86767578 115.63964844 C-8.97067513 119.05276177 -7.0767217 122.46754978 -5.18359375 125.8828125 C-4.54558838 127.03313965 -3.90758301 128.1834668 -3.25024414 129.36865234 C-2.07034254 131.49619265 -0.89105422 133.62407331 0.28735352 135.75244141 C0.84479248 136.75710449 1.40223145 137.76176758 1.9765625 138.796875 C2.5379231 139.8386814 3.0992837 140.8804878 3.67765522 141.9538641 C5.36449486 144.99299726 7.23178276 147.85182748 9.18477917 150.72634983 C19.45520053 166.40465924 20.81891585 179.2586815 20.47583008 197.68139648 C20.46485913 200.48282862 20.4736702 203.284122 20.48158264 206.08555603 C20.48833303 212.06696284 20.44825992 218.04649753 20.37449074 224.0274334 C20.26791355 232.67404726 20.23488965 241.31977481 20.21864685 249.96697415 C20.19033701 264.00282598 20.10421659 278.03768429 19.98071289 292.07299805 C19.86101219 305.69046204 19.769327 319.30765283 19.71411133 332.92553711 C19.71062736 333.77634403 19.7071434 334.62715095 19.70355386 335.50373989 C19.67651441 342.15962084 19.65107683 348.81550766 19.62614453 355.4713968 C19.50395519 387.98184367 19.24231979 420.48979754 19 453 C-66.14 453 -151.28 453 -239 453 C-239.40331349 382.74727119 -239.40331349 382.74727119 -239.48828125 353.33007812 C-239.50785739 346.59773516 -239.52806148 339.86539453 -239.54931641 333.13305664 C-239.55327264 331.86752558 -239.55327264 331.86752558 -239.55730879 330.57642823 C-239.60069888 316.98904991 -239.67947889 303.40209855 -239.77152796 289.81497266 C-239.86533259 275.85134433 -239.92064847 261.88793816 -239.94088495 247.92400771 C-239.95454704 239.32028002 -239.99755441 230.71775897 -240.07916467 222.11440311 C-240.13238347 216.19962909 -240.14792134 210.28547081 -240.13501377 204.37047525 C-240.12866173 200.96640992 -240.14339353 197.56611195 -240.19205475 194.16214561 C-240.40940937 178.16234088 -239.1459482 166.33744579 -230.18813586 152.81078398 C-228.53744651 150.2950432 -227.10818195 147.66972401 -225.671875 145.02734375 C-224.70016115 143.32944267 -223.72621149 141.63281915 -222.75 139.9375 C-218.04293139 131.68886901 -213.47801548 123.37507571 -209 115 C-203.54893325 104.81190399 -197.94919362 94.71973303 -192.23046875 84.6796875 C-188.12833105 77.46746475 -184.06780037 70.2316451 -180 63 C-160.86 63 -141.72 63 -122 63 C-122 60.36 -122 57.72 -122 55 C-119.606606 30.94144881 -112.56893346 4.72078425 -93.30078125 -11.3671875 C-64.69133852 -31.67066298 -26.41083151 -17.70718795 0 0 Z M-169 81 C-174.61578711 90.98362152 -180.2200151 100.96925485 -185.75 111 C-186.08971832 111.61562805 -186.42943665 112.2312561 -186.77944946 112.86553955 C-191.45834398 121.34584072 -196.0921575 129.84905895 -200.6875 138.375 C-206.60409329 149.35212949 -212.71970672 160.21163841 -218.89941406 171.04248047 C-220.61437297 174.09273347 -221.12472996 175.81115034 -221.12304783 179.30661201 C-221.12503888 180.21627696 -221.12702993 181.12594191 -221.12908131 182.06317246 C-221.12616847 183.06899333 -221.12325563 184.07481421 -221.12025452 185.1111145 C-221.12110894 186.17454697 -221.12196337 187.23797943 -221.12284368 188.33363712 C-221.12449944 191.92052096 -221.11897552 195.5073587 -221.11352539 199.09423828 C-221.11324351 201.65607706 -221.11340126 204.21791591 -221.1139679 206.77975464 C-221.1141961 212.30730915 -221.11134761 217.83484863 -221.10573006 223.36240005 C-221.09761323 231.3543721 -221.09499965 239.34633844 -221.09374207 247.33831416 C-221.09155183 260.30383377 -221.08489252 273.26934709 -221.07543945 286.23486328 C-221.06626459 298.83186817 -221.05919558 311.42887135 -221.05493164 324.02587891 C-221.05466364 324.8098937 -221.05439565 325.59390849 -221.05411953 326.4016813 C-221.05204018 332.53292176 -221.05008323 338.66416226 -221.04816496 344.79540277 C-221.03872623 374.86360761 -221.01860912 404.93179673 -221 435 C-158.96 435 -96.92 435 -33 435 C-32.53318605 390.20824722 -32.53318605 390.20824722 -32.21875 345.41601562 C-32.18743284 339.35000923 -32.15510764 333.28400949 -32.12109375 327.21801758 C-32.11687377 326.45793894 -32.11265379 325.69786029 -32.10830593 324.91474897 C-32.03906698 312.70759718 -31.91312797 300.50167425 -31.76555526 288.29524664 C-31.61493957 275.73057558 -31.52685396 263.16653934 -31.49458408 250.60100287 C-31.47476248 243.55828307 -31.4274283 236.51812782 -31.30831909 229.4763279 C-29.97068517 188.62470242 -29.97068517 188.62470242 -46.99595642 152.70836449 C-50.32870918 148.20431611 -52.89902741 143.2927695 -55.5625 138.375 C-56.60960141 136.52135398 -57.65993958 134.66952912 -58.71484375 132.8203125 C-61.73772236 127.48084393 -64.71722785 122.11803807 -67.68505859 116.74780273 C-68.96753125 114.43544612 -70.25809835 112.12755838 -71.55712891 109.82446289 C-74.47964739 104.63520137 -77.30107332 99.45892223 -79.83203125 94.06640625 C-83.36469299 85.70855824 -83.36469299 85.70855824 -90.02539062 80.21875 C-94.83811439 79.40173589 -99.26286648 79.98362631 -104 81 C-104.10628624 86.48555116 -104.13283653 91.96078823 -104.04199219 97.44677734 C-104.01543465 99.06153724 -103.99913506 100.67652695 -103.99707031 102.29150391 C-103.95380902 106.79376848 -103.70773284 110.81028888 -102 115 C-99.0868999 117.07697366 -96.4588479 118.01808857 -93.04296875 119.0546875 C-85.74736625 121.3211006 -81.89547863 126.91223208 -78.2890625 133.36328125 C-74.04036131 142.05380642 -72.29755455 150.8450049 -74.9140625 160.3046875 C-78.74321635 171.00161406 -83.69446737 178.76570257 -94 184 C-102.81552572 187.60511469 -113.19348872 188.9925646 -122.3125 185.86328125 C-133.1453932 180.70411587 -140.29377423 174.11871912 -144.8125 162.9375 C-147.75338816 153.07787494 -146.9620314 142.8834308 -142.546875 133.65625 C-137.37977689 124.78345526 -130.48323152 119.64234844 -121 116 C-120.77349526 104.29725514 -121.49035407 92.72185642 -122 81 C-137.51 81 -153.02 81 -169 81 Z " fill="#04055F" transform="translate(312,34)"/>
<path d="M0 0 C8.43967749 7.45831964 8.43967749 7.45831964 8.890625 12.765625 C9.05358066 22.70592037 9.05358066 22.70592037 5.6875 27.375 C0.87829603 32.19557325 -2.66806859 34.50467608 -9.625 34.6875 C-14.70755647 34.62723253 -17.44623329 33.87305083 -21.3125 30.375 C-26.64564941 24.67855703 -27.67317215 21.15680469 -27.58984375 13.42578125 C-27.18175987 8.93685856 -26.11414838 6.91392427 -23.3125 3.375 C-16.5750265 -1.95883318 -7.96216398 -3.90596724 0 0 Z " fill="#FCFCFD" transform="translate(211.3125,168.625)"/>
</svg>
